<?xml version="1.0" encoding="UTF-8"?>
<svg version="1.1" xmlns="http://www.w3.org/2000/svg" width="414" height="100">
<path d="M0 0 C5.61 0 11.22 0 17 0 C17 0.99 17 1.98 17 3 C17.99 3 18.98 3 20 3 C20 3.66 20 4.32 20 5 C20.66 5 21.32 5 22 5 C22 6.65 22 8.3 22 10 C22.66 10 23.32 10 24 10 C24 11.65 24 13.3 24 15 C24.99 15 25.98 15 27 15 C27 15.66 27 16.32 27 17 C27.66 17 28.32 17 29 17 C29 18.65 29 20.3 29 22 C29.66 22 30.32 22 31 22 C31 22.66 31 23.32 31 24 C32.32 24 33.64 24 35 24 C35.33 22.35 35.66 20.7 36 19 C36.66 19 37.32 19 38 19 C38 18.34 38 17.68 38 17 C38.66 17 39.32 17 40 17 C40 15.35 40 13.7 40 12 C40.66 12 41.32 12 42 12 C42 10.68 42 9.36 42 8 C42.99 8 43.98 8 45 8 C45 7.01 45 6.02 45 5 C45.66 5 46.32 5 47 5 C47 3.35 47 1.7 47 0 C54.26 0 61.52 0 69 0 C69 1.32 69 2.64 69 4 C68.34 4 67.68 4 67 4 C66.855625 4.78375 66.71125 5.5675 66.5625 6.375 C66 9 66 9 65 11 C64.01 11 63.02 11 62 11 C62 12.65 62 14.3 62 16 C61.34 16 60.68 16 60 16 C60 17.32 60 18.64 60 20 C59.34 20 58.68 20 58 20 C58 20.99 58 21.98 58 23 C57.01 23 56.02 23 55 23 C55 24.65 55 26.3 55 28 C54.34 28 53.68 28 53 28 C53 28.66 53 29.32 53 30 C52.01 30 51.02 30 50 30 C50 31.65 50 33.3 50 35 C49.34 35 48.68 35 48 35 C48 36.32 48 37.64 48 39 C47.34 39 46.68 39 46 39 C46 41.31 46 43.62 46 46 C46.66 46 47.32 46 48 46 C48 47.32 48 48.64 48 50 C48.66 50 49.32 50 50 50 C50 50.99 50 51.98 50 53 C50.99 53 51.98 53 53 53 C53 54.65 53 56.3 53 58 C53.66 58 54.32 58 55 58 C55 59.32 55 60.64 55 62 C55.99 62 56.98 62 58 62 C58 62.99 58 63.98 58 65 C58.66 65 59.32 65 60 65 C60 66.32 60 67.64 60 69 C60.66 69 61.32 69 62 69 C62 69.99 62 70.98 62 72 C62.99 72 63.98 72 65 72 C65 73.65 65 75.3 65 77 C65.66 77 66.32 77 67 77 C67 77.66 67 78.32 67 79 C67.66 79 68.32 79 69 79 C69 80.98 69 82.96 69 85 C61.74 85 54.48 85 47 85 C47 83.35 47 81.7 47 80 C46.34 80 45.68 80 45 80 C45 79.34 45 78.68 45 78 C44.01 77.67 43.02 77.34 42 77 C42 75.68 42 74.36 42 73 C41.34 73 40.68 73 40 73 C40 72.01 40 71.02 40 70 C39.34 70 38.68 70 38 70 C38 68.68 38 67.36 38 66 C37.01 66 36.02 66 35 66 C35 65.01 35 64.02 35 63 C34.34 63 33.68 63 33 63 C33 61.68 33 60.36 33 59 C32.34 59 31.68 59 31 59 C31 59.66 31 60.32 31 61 C30.34 61 29.68 61 29 61 C29 62.65 29 64.3 29 66 C28.34 66 27.68 66 27 66 C27 67.32 27 68.64 27 70 C26.01 70 25.02 70 24 70 C24 70.99 24 71.98 24 73 C23.34 73 22.68 73 22 73 C22 74.65 22 76.3 22 78 C21.34 78 20.68 78 20 78 C19.67 79.32 19.34 80.64 19 82 C18.34 82 17.68 82 17 82 C17 82.99 17 83.98 17 85 C11.39 85 5.78 85 0 85 C0 81.37 0 77.74 0 74 C0.66 74 1.32 74 2 74 C2 72.68 2 71.36 2 70 C2.66 70 3.32 70 4 70 C4 69.01 4 68.02 4 67 C4.99 67 5.98 67 7 67 C7 65.35 7 63.7 7 62 C7.66 62 8.32 62 9 62 C9 61.34 9 60.68 9 60 C9.66 60 10.32 60 11 60 C11 58.35 11 56.7 11 55 C11.99 55 12.98 55 14 55 C14 53.35 14 51.7 14 50 C14.66 50 15.32 50 16 50 C16 49.34 16 48.68 16 48 C16.99 48 17.98 48 19 48 C19 46.35 19 44.7 19 43 C19.66 43 20.32 43 21 43 C21 41.68 21 40.36 21 39 C20.34 39 19.68 39 19 39 C19 38.34 19 37.68 19 37 C18.01 37 17.02 37 16 37 C16 35.35 16 33.7 16 32 C15.34 32 14.68 32 14 32 C14 31.34 14 30.68 14 30 C13.01 30 12.02 30 11 30 C11 28.35 11 26.7 11 25 C10.34 25 9.68 25 9 25 C9 24.34 9 23.68 9 23 C8.34 23 7.68 23 7 23 C7 21.35 7 19.7 7 18 C6.01 18 5.02 18 4 18 C4 17.34 4 16.68 4 16 C3.34 16 2.68 16 2 16 C2 14.35 2 12.7 2 11 C1.34 11 0.68 11 0 11 C0 7.37 0 3.74 0 0 Z " fill="#FFFFFF" transform="translate(0,11)"/>
<path d="M0 0 C6.6 0 13.2 0 20 0 C20 14.19 20 28.38 20 43 C20.66 43 21.32 43 22 43 C22 44.32 22 45.64 22 47 C27.28 47 32.56 47 38 47 C38 46.34 38 45.68 38 45 C38.66 45 39.32 45 40 45 C40 43.35 40 41.7 40 40 C40.99 40 41.98 40 43 40 C43 26.8 43 13.6 43 0 C49.6 0 56.2 0 63 0 C63 20.79 63 41.58 63 63 C57.06 63 51.12 63 45 63 C45 61.35 45 59.7 45 58 C43.68 58 42.36 58 41 58 C41 58.66 41 59.32 41 60 C40.34 60 39.68 60 39 60 C39 60.99 39 61.98 39 63 C37.35 63 35.7 63 34 63 C34 63.66 34 64.32 34 65 C27.4 65 20.8 65 14 65 C14 64.34 14 63.68 14 63 C12.35 62.67 10.7 62.34 9 62 C9 61.34 9 60.68 9 60 C8.34 60 7.68 60 7 60 C7 59.34 7 58.68 7 58 C6.34 58 5.68 58 5 58 C5 56.35 5 54.7 5 53 C4.01 53 3.02 53 2 53 C2 50.69 2 48.38 2 46 C1.34 46 0.68 46 0 46 C0 30.82 0 15.64 0 0 Z " fill="#FFFFFF" transform="translate(178,33)"/>
<path d="M0 0 C7.92 0 15.84 0 24 0 C24 0.66 24 1.32 24 2 C25.65 2 27.3 2 29 2 C29 2.99 29 3.98 29 5 C30.65 5 32.3 5 34 5 C34 5.66 34 6.32 34 7 C34.66 7 35.32 7 36 7 C36 8.65 36 10.3 36 12 C36.99 12 37.98 12 39 12 C39 14.64 39 17.28 39 20 C33.06 20 27.12 20 21 20 C21 19.01 21 18.02 21 17 C20.34 17 19.68 17 19 17 C19 16.34 19 15.68 19 15 C15.37 15 11.74 15 8 15 C8 15.66 8 16.32 8 17 C7.01 17 6.02 17 5 17 C5 18.32 5 19.64 5 21 C6.65 21 8.3 21 10 21 C10 21.99 10 22.98 10 24 C13.3 24 16.6 24 20 24 C20 24.66 20 25.32 20 26 C22.97 26 25.94 26 29 26 C29 26.66 29 27.32 29 28 C30.65 28 32.3 28 34 28 C34 28.99 34 29.98 34 31 C34.66 31 35.32 31 36 31 C36 31.66 36 32.32 36 33 C36.99 33 37.98 33 39 33 C39 33.99 39 34.98 39 36 C39.66 36 40.32 36 41 36 C41 40.95 41 45.9 41 51 C40.34 51 39.68 51 39 51 C39 52.65 39 54.3 39 56 C38.01 56 37.02 56 36 56 C36 56.66 36 57.32 36 58 C35.34 58 34.68 58 34 58 C34 58.66 34 59.32 34 60 C33.34 60 32.68 60 32 60 C31.67 60.99 31.34 61.98 31 63 C28.69 63 26.38 63 24 63 C24 63.66 24 64.32 24 65 C16.74 65 9.48 65 2 65 C2 64.34 2 63.68 2 63 C0.35 63 -1.3 63 -3 63 C-3 62.01 -3 61.02 -3 60 C-3.78375 59.855625 -4.5675 59.71125 -5.375 59.5625 C-8 59 -8 59 -10 58 C-10 57.34 -10 56.68 -10 56 C-10.66 56 -11.32 56 -12 56 C-12 54.35 -12 52.7 -12 51 C-12.99 50.67 -13.98 50.34 -15 50 C-15 47.69 -15 45.38 -15 43 C-8.4 43 -1.8 43 5 43 C5 44.32 5 45.64 5 47 C6.65 47.33 8.3 47.66 10 48 C10 48.66 10 49.32 10 50 C12.97 50 15.94 50 19 50 C19 49.01 19 48.02 19 47 C19.66 47 20.32 47 21 47 C21 45.02 21 43.04 21 41 C19.35 41 17.7 41 16 41 C16 40.34 16 39.68 16 39 C13.03 39 10.06 39 7 39 C7 38.34 7 37.68 7 37 C5.906875 37.020625 4.81375 37.04125 3.6875 37.0625 C0 37 0 37 -3 36 C-3 35.34 -3 34.68 -3 34 C-3.66 34 -4.32 34 -5 34 C-5 33.34 -5 32.68 -5 32 C-6.65 32 -8.3 32 -10 32 C-10 31.01 -10 30.02 -10 29 C-10.66 29 -11.32 29 -12 29 C-12 22.4 -12 15.8 -12 9 C-11.34 9 -10.68 9 -10 9 C-10 8.34 -10 7.68 -10 7 C-9.34 7 -8.68 7 -8 7 C-8 6.34 -8 5.68 -8 5 C-7.01 5 -6.02 5 -5 5 C-5 4.01 -5 3.02 -5 2 C-3.35 2 -1.7 2 0 2 C0 1.34 0 0.68 0 0 Z " fill="#FFFFFF" transform="translate(264,33)"/>
<path d="M0 0 C0.70189453 0.00451172 1.40378906 0.00902344 2.12695312 0.01367188 C3.85550538 0.02543073 5.58401365 0.04336546 7.3125 0.0625 C7.3125 1.0525 7.3125 2.0425 7.3125 3.0625 C8.9625 3.0625 10.6125 3.0625 12.3125 3.0625 C12.3125 3.7225 12.3125 4.3825 12.3125 5.0625 C14.7875 5.5575 14.7875 5.5575 17.3125 6.0625 C17.3125 7.3825 17.3125 8.7025 17.3125 10.0625 C17.9725 10.0625 18.6325 10.0625 19.3125 10.0625 C19.3125 18.3125 19.3125 26.5625 19.3125 35.0625 C18.6525 35.0625 17.9925 35.0625 17.3125 35.0625 C17.3125 37.3725 17.3125 39.6825 17.3125 42.0625 C16.3225 42.0625 15.3325 42.0625 14.3125 42.0625 C14.3125 43.7125 14.3125 45.3625 14.3125 47.0625 C13.6525 47.0625 12.9925 47.0625 12.3125 47.0625 C12.3125 48.3825 12.3125 49.7025 12.3125 51.0625 C11.3225 51.0625 10.3325 51.0625 9.3125 51.0625 C9.3125 52.0525 9.3125 53.0425 9.3125 54.0625 C8.6525 54.0625 7.9925 54.0625 7.3125 54.0625 C7.3125 55.7125 7.3125 57.3625 7.3125 59.0625 C6.6525 59.0625 5.9925 59.0625 5.3125 59.0625 C5.3125 59.7225 5.3125 60.3825 5.3125 61.0625 C4.3225 61.0625 3.3325 61.0625 2.3125 61.0625 C2.3125 61.7225 2.3125 62.3825 2.3125 63.0625 C0.9925 63.0625 -0.3275 63.0625 -1.6875 63.0625 C-1.6875 64.0525 -1.6875 65.0425 -1.6875 66.0625 C-3.3375 66.0625 -4.9875 66.0625 -6.6875 66.0625 C-6.6875 66.7225 -6.6875 67.3825 -6.6875 68.0625 C-13.2875 68.0625 -19.8875 68.0625 -26.6875 68.0625 C-26.6875 67.4025 -26.6875 66.7425 -26.6875 66.0625 C-28.3375 66.0625 -29.9875 66.0625 -31.6875 66.0625 C-31.6875 65.0725 -31.6875 64.0825 -31.6875 63.0625 C-32.3475 63.0625 -33.0075 63.0625 -33.6875 63.0625 C-33.6875 62.4025 -33.6875 61.7425 -33.6875 61.0625 C-34.6775 61.0625 -35.6675 61.0625 -36.6875 61.0625 C-36.6875 59.4125 -36.6875 57.7625 -36.6875 56.0625 C-37.3475 56.0625 -38.0075 56.0625 -38.6875 56.0625 C-38.6875 50.4525 -38.6875 44.8425 -38.6875 39.0625 C-38.0275 39.0625 -37.3675 39.0625 -36.6875 39.0625 C-36.6875 35.7625 -36.6875 32.4625 -36.6875 29.0625 C-35.6975 29.0625 -34.7075 29.0625 -33.6875 29.0625 C-33.6875 27.4125 -33.6875 25.7625 -33.6875 24.0625 C-33.0275 24.0625 -32.3675 24.0625 -31.6875 24.0625 C-31.6875 22.7425 -31.6875 21.4225 -31.6875 20.0625 C-31.0275 20.0625 -30.3675 20.0625 -29.6875 20.0625 C-29.6875 18.4125 -29.6875 16.7625 -29.6875 15.0625 C-28.6975 15.0625 -27.7075 15.0625 -26.6875 15.0625 C-26.6875 14.0725 -26.6875 13.0825 -26.6875 12.0625 C-26.0275 12.0625 -25.3675 12.0625 -24.6875 12.0625 C-24.6875 11.4025 -24.6875 10.7425 -24.6875 10.0625 C-23.6975 10.0625 -22.7075 10.0625 -21.6875 10.0625 C-21.6875 9.4025 -21.6875 8.7425 -21.6875 8.0625 C-21.0275 8.0625 -20.3675 8.0625 -19.6875 8.0625 C-19.6875 7.0725 -19.6875 6.0825 -19.6875 5.0625 C-18.0375 5.0625 -16.3875 5.0625 -14.6875 5.0625 C-14.6875 4.4025 -14.6875 3.7425 -14.6875 3.0625 C-13.3675 3.0625 -12.0475 3.0625 -10.6875 3.0625 C-10.6875 2.4025 -10.6875 1.7425 -10.6875 1.0625 C-7.06882441 -0.1437252 -3.76243749 -0.04566918 0 0 Z M-1.6875 6.0625 C-2.0175 6.7225 -2.3475 7.3825 -2.6875 8.0625 C-4.75 8.6875 -4.75 8.6875 -6.6875 9.0625 C-6.6875 10.3825 -6.6875 11.7025 -6.6875 13.0625 C-7.6775 13.0625 -8.6675 13.0625 -9.6875 13.0625 C-9.6875 14.0525 -9.6875 15.0425 -9.6875 16.0625 C-10.3475 16.0625 -11.0075 16.0625 -11.6875 16.0625 C-11.6875 17.3825 -11.6875 18.7025 -11.6875 20.0625 C-12.3475 20.0625 -13.0075 20.0625 -13.6875 20.0625 C-13.6875 21.7125 -13.6875 23.3625 -13.6875 25.0625 C-14.6775 25.0625 -15.6675 25.0625 -16.6875 25.0625 C-16.6875 27.3725 -16.6875 29.6825 -16.6875 32.0625 C-17.3475 32.0625 -18.0075 32.0625 -18.6875 32.0625 C-18.6875 35.3625 -18.6875 38.6625 -18.6875 42.0625 C-19.3475 42.0625 -20.0075 42.0625 -20.6875 42.0625 C-20.6875 48.6625 -20.6875 55.2625 -20.6875 62.0625 C-18.7075 62.0625 -16.7275 62.0625 -14.6875 62.0625 C-14.6875 61.4025 -14.6875 60.7425 -14.6875 60.0625 C-14.0275 60.0625 -13.3675 60.0625 -12.6875 60.0625 C-12.6875 59.4025 -12.6875 58.7425 -12.6875 58.0625 C-12.0275 58.0625 -11.3675 58.0625 -10.6875 58.0625 C-10.6875 57.0725 -10.6875 56.0825 -10.6875 55.0625 C-9.6975 55.0625 -8.7075 55.0625 -7.6875 55.0625 C-7.6875 53.4125 -7.6875 51.7625 -7.6875 50.0625 C-7.0275 50.0625 -6.3675 50.0625 -5.6875 50.0625 C-5.6875 48.7425 -5.6875 47.4225 -5.6875 46.0625 C-4.6975 46.0625 -3.7075 46.0625 -2.6875 46.0625 C-2.6875 44.4125 -2.6875 42.7625 -2.6875 41.0625 C-2.0275 41.0625 -1.3675 41.0625 -0.6875 41.0625 C-0.6875 37.7625 -0.6875 34.4625 -0.6875 31.0625 C-0.0275 31.0625 0.6325 31.0625 1.3125 31.0625 C1.3125 26.4425 1.3125 21.8225 1.3125 17.0625 C2.3025 17.0625 3.2925 17.0625 4.3125 17.0625 C4.3125 15.7425 4.3125 14.4225 4.3125 13.0625 C3.3225 13.0625 2.3325 13.0625 1.3125 13.0625 C1.3125 10.7525 1.3125 8.4425 1.3125 6.0625 C0.3225 6.0625 -0.6675 6.0625 -1.6875 6.0625 Z " fill="#FFFFFF" transform="translate(385.6875,29.9375)"/>
<path d="M0 0 C5.61 0 11.22 0 17 0 C17 4.62 17 9.24 17 14 C21.62 14 26.24 14 31 14 C31 19.61 31 25.22 31 31 C26.38 31 21.76 31 17 31 C17 40.24 17 49.48 17 59 C20.00778521 60.00259507 22.53820647 60.30314642 25.6875 60.5625 C27.440625 60.706875 29.19375 60.85125 31 61 C31 66.28 31 71.56 31 77 C23.08 77 15.16 77 7 77 C7 76.01 7 75.02 7 74 C5.35 74 3.7 74 2 74 C2 73.34 2 72.68 2 72 C1.34 72 0.68 72 0 72 C0 70.35 0 68.7 0 67 C-0.99 67 -1.98 67 -3 67 C-3 55.12 -3 43.24 -3 31 C-5.97 31 -8.94 31 -12 31 C-12 25.39 -12 19.78 -12 14 C-9.03 14 -6.06 14 -3 14 C-3 10.04 -3 6.08 -3 2 C-2.01 2 -1.02 2 0 2 C0 1.34 0 0.68 0 0 Z " fill="#FFFFFF" transform="translate(88,19)"/>
<path d="M0 0 C5.94 0 11.88 0 18 0 C18.33 2.31 18.66 4.62 19 7 C19.99 7 20.98 7 22 7 C22 6.34 22 5.68 22 5 C22.66 5 23.32 5 24 5 C24 4.01 24 3.02 24 2 C25.65 2 27.3 2 29 2 C29 1.34 29 0.68 29 0 C33.29 0 37.58 0 42 0 C42 6.6 42 13.2 42 20 C37.05 20 32.1 20 27 20 C27 20.66 27 21.32 27 22 C25.68 22 24.36 22 23 22 C23 22.99 23 23.98 23 25 C22.01 25 21.02 25 20 25 C20 37.54 20 50.08 20 63 C13.4 63 6.8 63 0 63 C0 42.21 0 21.42 0 0 Z " fill="#FFFFFF" transform="translate(130,33)"/>
<path d="M0 0 C3.96 0 7.92 0 12 0 C12 0.99 12 1.98 12 3 C12.99 3 13.98 3 15 3 C15 3.66 15 4.32 15 5 C15.66 5 16.32 5 17 5 C17 9.29 17 13.58 17 18 C16.34 18 15.68 18 15 18 C15 20.31 15 22.62 15 25 C14.01 25 13.02 25 12 25 C12 27.31 12 29.62 12 32 C11.34 32 10.68 32 10 32 C10.0928125 33.485 10.0928125 33.485 10.1875 35 C10.21491645 39.46888211 8.7208227 42.91304608 7 47 C6.34 47 5.68 47 5 47 C5 48.32 5 49.64 5 51 C4.34 51 3.68 51 3 51 C3.33 53.31 3.66 55.62 4 58 C4.99 58 5.98 58 7 58 C7 57.01 7 56.02 7 55 C7.66 55 8.32 55 9 55 C9 52.69 9 50.38 9 48 C9.66 48 10.32 48 11 48 C11.33 46.35 11.66 44.7 12 43 C13.65 43 15.3 43 17 43 C17 44.98 17 46.96 17 49 C16.34 49 15.68 49 15 49 C15 51.31 15 53.62 15 56 C14.01 56 13.02 56 12 56 C12 57.65 12 59.3 12 61 C11.34 61 10.68 61 10 61 C10 61.66 10 62.32 10 63 C9.34 63 8.68 63 8 63 C8 63.99 8 64.98 8 66 C7.01 66 6.02 66 5 66 C5 66.66 5 67.32 5 68 C0.05 68 -4.9 68 -10 68 C-10 67.34 -10 66.68 -10 66 C-10.66 66 -11.32 66 -12 66 C-12 65.01 -12 64.02 -12 63 C-12.99 63 -13.98 63 -15 63 C-15 59.04 -15 55.08 -15 51 C-13.515 50.505 -13.515 50.505 -12 50 C-12 47.69 -12 45.38 -12 43 C-11.34 43 -10.68 43 -10 43 C-10 40.69 -10 38.38 -10 36 C-9.34 36 -8.68 36 -8 36 C-8 33.69 -8 31.38 -8 29 C-7.01 29 -6.02 29 -5 29 C-5 26.69 -5 24.38 -5 22 C-4.34 22 -3.68 22 -3 22 C-3 19.69 -3 17.38 -3 15 C-2.34 15 -1.68 15 -1 15 C-1.33 13.68 -1.66 12.36 -2 11 C-2.66 11 -3.32 11 -4 11 C-4 11.66 -4 12.32 -4 13 C-4.99 13 -5.98 13 -7 13 C-7 15.31 -7 17.62 -7 20 C-7.66 20 -8.32 20 -9 20 C-9 21.65 -9 23.3 -9 25 C-10.98 25 -12.96 25 -15 25 C-15 23.35 -15 21.7 -15 20 C-14.01 20 -13.02 20 -12 20 C-12 17.36 -12 14.72 -12 12 C-11.34 12 -10.68 12 -10 12 C-10 10.68 -10 9.36 -10 8 C-9.34 8 -8.68 8 -8 8 C-8 7.01 -8 6.02 -8 5 C-7.01 5 -6.02 5 -5 5 C-5 4.34 -5 3.68 -5 3 C-3.68 3 -2.36 3 -1 3 C-0.67 2.01 -0.34 1.02 0 0 Z " fill="#FFFFFF" transform="translate(326,30)"/>
<path d="M0 0 C4.29 0 8.58 0 13 0 C13 0.66 13 1.32 13 2 C13.66 2 14.32 2 15 2 C15 6.29 15 10.58 15 15 C14.34 15 13.68 15 13 15 C13 15.99 13 16.98 13 18 C12.01 18 11.02 18 10 18 C10 18.66 10 19.32 10 20 C6.04 20 2.08 20 -2 20 C-2 19.34 -2 18.68 -2 18 C-2.99 18 -3.98 18 -5 18 C-5 13.71 -5 9.42 -5 5 C-4.01 5 -3.02 5 -2 5 C-2 4.01 -2 3.02 -2 2 C-1.34 2 -0.68 2 0 2 C0 1.34 0 0.68 0 0 Z " fill="#FFFFFF" transform="translate(335,2)"/>
</svg>
